<mxfile host="app.diagrams.net" modified="2021-04-08T09:19:41.411Z" agent="5.0 (Windows)" etag="oG_RhCs__r3428u5jzvZ" version="14.5.8" type="github">
  <diagram id="fLoytuqCdq5HbhO5DAlu" name="Page-1">
    <mxGraphModel dx="2374" dy="1090" grid="1" gridSize="10" guides="1" tooltips="1" connect="1" arrows="1" fold="1" page="1" pageScale="1" pageWidth="850" pageHeight="1100" math="0" shadow="0">
      <root>
        <mxCell id="0" />
        <mxCell id="1" parent="0" />
        <mxCell id="VqVprpiNp-JgvhQdnsUL-8" style="edgeStyle=orthogonalEdgeStyle;rounded=0;orthogonalLoop=1;jettySize=auto;html=1;entryX=0.5;entryY=1;entryDx=0;entryDy=0;" edge="1" parent="1" source="VqVprpiNp-JgvhQdnsUL-2" target="VqVprpiNp-JgvhQdnsUL-6">
          <mxGeometry relative="1" as="geometry">
            <Array as="points">
              <mxPoint x="850" y="220" />
              <mxPoint x="850" y="220" />
            </Array>
          </mxGeometry>
        </mxCell>
        <mxCell id="VqVprpiNp-JgvhQdnsUL-2" value="" style="shape=image;verticalLabelPosition=bottom;labelBackgroundColor=#ffffff;verticalAlign=top;aspect=fixed;imageAspect=0;image=data:image/png,iVBORw0KGgoAAAANSUhEUgAAA8EAAAIdCAYAAAAdw3/gAAAgAElEQVR4nOzd628cWX7f//lr9DA3QECCXcTIAoITKDYcrIXNxAH8e6b8NoYw8fr3QAs4ixj7wyKhV7GdjWF5dz3KirurO6k7JbVEUhrqQomURIqkREkUJVJsqkekeGeTXd3fPOg55GGxqlld1axzTvX7A7wwoybZXawu9qlPn6rqzwYHB+X58+cAAAAAAGTa4OCgfPb8+XP51vESAAAAAACZdufVPCUYAAAAANAcKMEAAAAAgKZBCQYAAAAANA1KMAAAAACgaVCCAQAAAABNgxIMAAAAAGgalGAAAAAAQNOgBAMAAAAAmgYlGAAAAADQNCjBAAAAAICmQQkGAAAAADSNukuwP6OzEvh9+aXq14O+1vqsvO1+REQW14O/HwAAAACARohcgn9y1xMRkWtjlS2355e2F1f1vfml7d//reObJdh/++isBD4GAAAAAKBxfvdkSS6/qvayxTWRy6/K8rsnG3f/f3Ldk9HZioiIdL8ry/9zyWvo8qtlv/yqXPfPRi7BD/OVwMIb9r2js9UyG/QzYSX4W8dLcm2suqJ+crexKwkAAAAAUDU6W5FfPq0W3989WZJfPi3L6GxjJiP/sM2TxTXfUb9r0rCS/dePth5Z/P/fra8I11WCox6uvLgu0vqsvDEj3Pps60LVKsHq5x/mszkbPDor294YiPrmQpT1zqHl8Z6TRq03te3v1vI16g2iZts+1JtrKo1+jpTWZ+XQU0TClkV/Lh7mKzseCaP/nXPkTPX1U/+baH1W3nH8SLr9R3meo9CfSzUOhL2O67c34rFdYcvz638djvK3F7YPpG7X/19F/W4P85uvE43aRwAAv8fT21/HXs5W5E+uJ9/X9JdUlXrLatT737US/K3jm4NwrR1If8HNL20fsHcqwaOz2R3kVQnWB/FGlmD1/1F2poPE/TmXjc5ubtPXxirWvQGjL18jd74beX82q+colqT09Rn2t+Tfxq6Nbb7BGLUE+/9d62ey/jdtS0kKWpadBC1H2Ou4frv+mpB1Nj2/6jmJuu5/cteTxfXtJXZ0dvMNjp/c9bZ9Peg2ANgNv3y6/fXsl0/LgbfHue+gNOK+lSvfHA59ZTcPh1b0dyeDBgJ/gVWzHvr3NHsJbn1WlsX1zYFdH+z0d5t/ctfbshP0MF/Z8i6xf/2H7STpMwjqvoKKlT5Dpda/+tkszxzq6+Ind72Nf6vn4mG+suXd+tFZ2di5Ufehnid9h01/LtX69BcgdR/+5z1s+fSf158v/XnV7yesQKvtT0UtRxaf71o7k0F/G+pNKhX/9+rryv/81/pbUoLeaFHbjfobVwna2fc/N/7nVX999i+H/u+s7GTXKkmL67LlbyJoHYa9PvqfA/9rQK2ZQr24+m+r9Vz6b/O/juvbUJbf2LDx+VX0sdc/i+t/7VZlVv8d1Ouy+vsLK7z67wMAu6U/YCZ4dLYih7vcKMFJxP6IJLWj5t9JE9lejv07ADuV4KDZ46xQOzWtz8obA5/6r75zrAZGNWCqn/X/jC5ssNfXvVrvYeVIL922z5A2+jlRv7/ayQnbqdJLsvo5/Xn5yV1Pro1VtmzD+aXNUhJUgmuVzqAy7d9xCrufWiXYf1tWZ4XDyl7Y34b++qNvD/51U6sE67f5Hzfob0k9T/7TTvQ3y4IeN2hb8D+XYctR76ylrWqVJP21UP+b1N98CtoGgta3/lyElST/m2BR7ttfxsKKs/68q9cT0+u+2Z7fbx3fWoL1n9HHdEX9bfr/HvXv9Rdp/XkVydYbkgDs89J3TvDlV2VZXGvM687U4tbTv1SCine9DneVpftdeeOc48W16oW36inviT4nWBUFNQjoMxj+6IPDTiXYPxBkib9w6RcP868/Nfjps0RqFjJogA4qNkGHYdWaIdR3mNXHXPkLWNboJVOtL3/p8UcvPPpOmf5c6duwmrkJK8HqbyLojYag2aCgjxn7yV1v2/3UU4L1bTBLf39hO5Fhfxv6Trf+fPnXTSNLsL7d6D+jlqnW76M/ZtAbJvp97jRz5SL/OvLPFKrb9ddN/bU16L70GfOg741yOHTYfe+0bYb9bQYV5mZg0/P7reNbS/BO1/fQ36DyP85OM8H6fVCEAeyW3z25eUjx4nr1sOIrr8qxrrbsVyu7ed9Rz2dOVILVDpUaoMIuaOUvy7VKsH6uTBb5z+XSzxcKm21V70rrM4w7HVqnz1YGvRPuP8x6p5ngLAv6PYN2QIN+Vs0a6ju+tWaC/TOv/vsNOsw9aEZ+px0ndT9hz/NO5wRn5VBZtf6CfsdaM8FBJdi/bvyFJ24J9v/9+d988f+8f5vR3wBR91vrjS3998hCCfavM/151ccd/XSSnWYKw46y0O+rUTPBtW4LOxy6mdj0/Kqv1TsT/K3jpY03vP1/i1HO/83S6zEAN1x5VW7YBawOd1V7XyMOsVZqJerh1pFLcFBR0Aurv+j66QU5rASrd7pNP/G7yb8egy4kpqKvL/0iGmHryP+uuHo+/OcJ6l8XkS2Hf6rlUf/Wk9VCHKUE+2de1e3+iy6FnRPsn/1V6109ZypBO7pBb5yoIqU/h0H3E/Y864+jvl//HbM2668/F/q2HPS3EVSCg9aN//xafwn2/y0p/qtD+2fi9deAsDe79OivufrzH7Qc+jYTdKi1q8KunLy4LoHnuYedM6pvA/pzq69HdVvQ34hav0HnBAe9fgZdCbrW67jp9dzsz696jsPOCfZ/r7/gBv2//z7Um6p6muX8bwBIU10l2B//C3qtQVrtHHzrePChnLzQAwAaqZmLYzPg+QUAxJXocGhE85+ve5lker0CQC2UpGzj+QUAxEUJToHpskoJBgAAAIAqSjAAAAAAoGlQggEAAAAATYMSDAAAAABoGpRgAAAAAEDToAQDAAAAAJoGJRgAAAAA0DQowQAAAACApkEJBgAAAAA0DUowAAAAAKBpbJTgXz4tAwAAAACQaaP5hWoJJoQQQgghhBBCsp6FBUowIYQQQgghhJAmCSWYEEIIIYQQQkjThBJMCCGEEEIIIaRpQgkmhBBCCCGEENI0oQQTQgghhBBCCGmaUIIJIYQQQgghhDRNKMGEEEIIIYQQQpomlGBCCCGEEEIIIU0TSjAhhBBCCCGEkKYJJZgQQgghhBBCSNOEEkwIIYQQQgghpGlCCSaEEEIIIYQQ0jShBBNCCCGEEEIIaZpQggkhhBBCCCGENE0owYQQQgghhBBCmiaUYEIIIYQQQgghTRNKMCGEEEIIIYSQpgklmBBCCCGEkIBML1VkbA5pm16q8Lxm0G4/r/WEEkwIIYQQQogvY5/K0pcvy+tPFaSsut7LPK8Zs5vPa72hBBNCCCGEEOJL37QdO+vNmt1a/zyvZmPL+qcEE0IIIYQQ4ktu3I6d9WbNbq1/nlezsWX9U4IJIYQQQgjxxZad9WYNJTibsWX9U4JrZGJBZM/R0oaJBdNLRAghhBBC0ogtO+vNGkpwNmPL+qcE18jfPCpvKcF/8yj+k/blQFm+e84L/Np3z3ny455o9/3jnq3LFPXnCCGEEEJI9Niys96soQRnM7asf0pwjQx/bNxMsF6Cv328en/q398952257eZ4Zcvj3hzfvJz4j3u2lmn19e9f8za+X//anqMl+XLAjo2NEEIIIcSV2LKz3qyhBGcztqx/SvAOmViozggnPRRaleAf95Tl+9c2y6+6/fvXPHn9abPU7jlaktefRL5/besssb8Ef/ecJz/sqpZo9fXvX/M2fk7dJyGEEEIIiR5bdtabNZTgbMaW9U8JrpHhjyLHBsryvx6V5dhAWYY/xr8vveyqUqv+X5VjVVh/PVTZKK6q0KoEleD/95q3cZt6nO+e87bMJr/+FH/ZCSGEEEKaLbbsrDdrKMHZjC3rnxIckt8/XdpSIpXfP1OS+bXo9/Pt49XDkXeaCY5bgvccLcn/7C2HzgTfHK9sfI0QQgghhESLLTvrzRpKcDZjy/qnBIckqADHOcf2y4HytnN7g84JrqcEB10Yy39OsLovzgkmhBBCCKk/tuysN2sowdmMLeufEhySv3lUDnX/fWXnOyCEEEIIIc7Glp31Zg0lOJuxZf1TggkhhBBCCPHFlp31Zg0lOJuxZf1TggkhhBBCCPHFlp31Zg0lOJuxZf1TggkhhBBCCPHFlp11dX0Z9Ukf37/mbVxnRr9YqroejLog65cD1Qukqoum6p8Uou5Dv6bMD7u9bdexMRlXSrC+3kWqz5d+zR59vX/7eGnjNv+FcvVr+Kj70K8t9P/dKm+7JpD6ef3f/udeXYvo5nhl2+Oo51//t/8aRo3+hBlb/q4owYQQQgghhPhiw866XpZUeVEfuan+X0X/uMydSrB+H+pr/oJkOq6UYH29i1TXp7pNX+/6et6pBH/f9/Gn/p/R8+3jpS2fBON/7vUL8eqPo0q2/jsEbVv6NtaI2PB3JUIJJoQQQgghZFts2FlXRUZFlZuggqL/f60S7L8PSnCy+Gfjf9xT3viYUn29+78vrAT776NWCf5yoLxRmNV2EjYTrL85IiIb968vQ9C25X8DJWls+LsSoQQTQgghhBCyLbbsrKsSEzQ7qH9NHdr67ePVQ1/1Q5v1r/nvQy/BNn28pislWF+3qliqwqp/TV+/+keZBh32rN+HXoLV9+hHB/hv8z/3/jdH1Ne63m5dhrBti5lgQgghhBBCmiS27Kw3a1wpwaS+2LL+KcGEEEIIIYT4YsvOerOGEpzN2LL+KcGEEEIIIYT4YsvOerOGEpzN2LL+KcGEEEIIIYT4YsvOerOGEpzN2LL+KcGEEEIIIYT4YsvOerOGEpzN2LL+KcGEEEIIIYT4YsvOerOGEpzN2LL+KcExEvRB1YQQQgghJDuxZWe9WUMJzmZsWf+UYC3qs7KUoKjPzUoS9ZlfYfdPySaEEEIIMRtbdtabNZTgbMaW9U8J1qI+VFpENj402v/B1PqHkv+4p7zxAdj6z+yUbx+vfkh2UGoVZEIIIYQQkk5s2Vlv1lCCsxlb1j8lWItegm+OV+Tbx0vy456yfDlQ3vi3mglW5VhENgpx1NSaSVbFmxBCCCGEmIstO+vNGkpwNmPL+qcEawkqwep2NeOrSvDN8cqWQ6eDDmH+cmBzpljNIP+wy9s2w/zHl7yN+9hztBT6NUIIIYQQkk5s2Vlv1lCCsxlb1j8lWEvQ4dDfPedtmQlW/9VngtX3RMmPe8qhs8Y3xyuRDqcmhBBCCCG7G1t21ps1lOBsxpb1TwnWEnRhLHXe73fPbZ2l/f41b2Pmtp5zgr97ztso2v7UKsiEEEIIISS93J0sS2GJ/TITKSyVpWdyd9Y9z6u57ObzWm8owYQQQgghhPiyUqrusOfGkba7k2VZKe1OWeJ5zebzWm8owYQQQgghhBBCmiaUYEIIIYQQQgghTRNKMCGEEEIIIYSQpgklmBBCCCGEEEJI04QSTAghhBBCCCGkaUIJJoQQQgghhBDSNKEEE0IIIYQQQghpmlCCCSGEEEIIIYQ0TSjBhBBCCCGEEEKaJpRgQgghhBBCCCFNE0owIYQQQgghhJCmCSWYEEIIIYQQQkjThBJMCCGEEEIIIaRpQgkmhBBCCCGEENI0oQQTQgghhBBCCGmaUIIJIYQQQgghhDRNKMGEEEIIIYQQQpomlGBCCCGEEEIIIU0TSjAhhBBCCCGEkKYJJZgQQgghhBBCSNOEEkwIIYQQQgghpGlCCSaEEEIIIYQQ0jShBBNCCCGEEEIIaZpQggkhhBBCCCGENE0owYQQQgghhBBCmiaUYEIIIYQQQgghTRNK8A758OGDvH79Wp4+G5H7j55Iz8Mn0tXTCwCIoefhY3nQ91QGhkZkbGxMPnz4YPplnoSE8Q8AmsdXD/qkf+CZjLwYlXfv3sny8rLpYWhXQwkOyOTkpDx41C8nzl+VM11P5MSd53Lm/htp63svFwc+ysWBrwEAMVwY+FraHk3K6XtjcuL2iJzp7JeT56/Kg0f98v79e9Mv/00fxj8AaE7tj/NytvednOx5Kae+eiGnrt6Wa5135MWLF5ksxJRgLe8mp6S945ZcvDss7Y/zkhsvAwBS0P44Lxd6huR8R6dMvJ8yPRw0XRj/AAB+l0fmpe3+a2nP3ZMH/YOytrZmerhqWCjBIrKysiKdd+7K+dtPpGN0xfgGBwDNqmN0Wc53P5aur+5JsVg0PTxkPox/AIAozj96J+eu3JSXr16ZHroakqYvwYVCQc51dMnlkXnjGxcAoOrKyLycu3pLvv76a9PDRGbD+AcAqNflh2Py4FG/6SEscZq6BL+bnJRznY+Mb0wAgGDttx5yePQuhPEPABDX5afTcvlGl1QqFdPDWew0bQl+OT4pv73x0PhGBACo7bfXe2VsgiLcqDD+AQCSujKyIGevdpoe0mKnKUtwoVCQs7d4BxwAXHH21kMOjW5AGP8AAI1y+dms3Lpzz/TQFitNV4JXVlbkzNUu4xsNAKA+p690yurqqulhxNkw/gEAGu38o3fyeOCZ6SGu7jRdCc7dvstFQADAQZeH5+Smo+842xDGPzRC61BZ9hwtyZ6jJTnS60luvCwHO7yN23brcfedqD7GgTZvy+3qcXVquRr1uOoxj/R6crBj83feeyz576t+L516jDgOdngN/f2BKNq6H8uHDx9MD3N1palK8NTUlJzrfmJ8QwEAxHOuq1/y+bzp4cS5MP6hUfQSrMqaXuR263H3HC3J4e7t5c5/+4E2T/ad2J0SvPdYsoK60/3nxstyuNuLvR7Vc0MJRtouj8zL9c47poe6utJUJfjy9U4+BxEAHHb1xbJczXWZHk6cC+MfGkUVrX0nNsum+rcqbwfats5u5sY3y93eY6WahVn/WXX/+s/4i3CtEqzfl15e9ftTt+89tjnLrGa2c+ObJdV/X/pM8N5jpS1vBKj7PNK79XcJ+p13KsFBy3qgbfOx1WMc6fW2fO+R3u3LrD9/uzFrjubWfmdAJicnTQ93kdM0JXhyclLaeoaNbyAAgGTO9zyT9+/fmx5WnAnjHxpJlShVFFUJ04uj/3uP9Hob5U6VLr10Kup7WofKG99zsMPbuJ+wmWC/3PhmOWwd2lyO1qGtt+v3s1MJ1pdHfY+/BAfdrhfXsBIcdji3Xnb1dRlWgvXvCfv9G3UYN+DX8WJZbnTfNT3kRU7TlODeR/3S/jhvfAMBACTT3j8lvX2PTQ8rzoTxD42kFy01s7vvhLelOOozoKq8+gtu0GHL/oKmvmenEqxu12eP1eP5lyM3vrV46rPNSUpw0M/qjxl2mLN+//7ZYv8ssXr8KCW41u/fqPOPAb9z13tkcXHR9LAXKU1Tgk+dv2p8w0D9/AOfGlzUi7Z/UPXzDyD1fk8jzitSy+x/5zXo3d+dljVI2I5BFOr3C3tnvF7qnW59vUUdaMPWdaOWDdlx440npy9cMz2sOBPGPzSSXrTUOKYOD1av1f5SppdgNV41ciZY3a7Gi8PdXqSxQy+m+r6APmubpARHnQnW14O+LxA2E6w/tj7DHjYTHPb7N/r8aeDc3VF5/fq16WEvUpqiBE9PT0sbFwRxlj6IqAFXP98n6WE9YSW4UYND2P1HKehRxC3BSS6+EUY//yg3vnU2oFYJ3o1lQba1dfVLoVAwPbxYH8Y/NFrYIc7+8qfe/FVjuPrenS6iFXROcNQSrP+8/778ZdI/Nukzp2r5c+PB5fhA2/ZzgoNKsD4GRi3BQYeN+5dV/x3U1/3ff7jbC/z9/TPEnBOMRro89Em67j4wPfRFSlOU4NevX8upO8+NbxiIx384lD6Q6AOP/4IQufGtg4v+EQ76BT3U/+uDjD5I6I9da9DwDyxq2cNmeaOUY/2d3LCBK+xQM/W7BA34Qb+P/933sB2EWjsw6rnSd4r0mYKg58m/LPrFU/Ye275s+vfqh9X5d5qQbWfujMjY2Jjp4cX6MP7BFjsduZVF/nLMubjIuutj63L28g3TQ1+kNEUJHhoekTP33xjfMBCPfgiVKl56cTvcvf3QIPX/qlD6PzZAv4iFXoj1+9FngncavPzvUus/G3TIl3pcvdD5D+Hy349Onx3fqQTrP6ffn74+9aIZdviV/93poHfl1f2r88P088T8V9PUnyd9WfyP4182/SgA/cqkcQ8Jh5vO3HstIxkfuxoRxj/YohlLcNC50aaXCdhtpy7lxPM808PfjmmKEtzb90Ta+t4b3ygQj//iG7nxrbO3qhz5C2Xr0GYJ9s8m6gUqaLbY/z258doXkvDfv17qapXgsMOh9x4rbSn/QcugfjZKCdYLd1Dx1Jc/7EIc9ZRsVXb1NyvUxTyCnqegEqweR1+2sHWpz/IHzVAje9r63svD/iemhxfrw/gHAEjTqau3ZWlpyfTwt2OaogR/1ftYLgx8bXyjQHz+d1H9F5sKm6mNOhMcpQQrQbfHnQkOK8FBF9PSZ3/1+/TPIOsfh6CKZ9A51HFngqOUYP3db/17w56nqCV4p9l5//OM7Lo4+FG+6uUK0TuF8Q8AkKZzXf0yOztrevjbMU1Rgjt7etkJcJw+65sb3yxG/hlL/yxp2DnBUWaC9XNTo1xIIuicYLVcUQ+H9l8ERC+Z/vNegw4F1i9Gon7ef36zWjb9XNw/vx39nOCoh1vrbzTo3xv0POnL8ifXw0uwui//86DfJ+cEN4eLAx+ls6fX9PBifeKOfw+myjL8EQBggukxNolTNx7IzMyM6eFvx1CC0RT8M7WNujIzADMowdESd/wb/liWuWIFAGCA6TE2CUqwRaEEIze+/bzRZro4B5A1lOBoSVKC54sVAIABpsfYJCjBFoUSDADZQgmOFmaCAcA9ccfGB1MVKSxXpFSOP24srFVkbC7+MlCCLQolGACyhRIcLcwEA4B74oyLTwuVho4fC2vxloMSbFEowQCQLZTgaGEmGADcU+9rdte7cqLZ37C8/lT/slCCLQolGACyhRIcLcwEA4B76n3NbvQssEqc2WBKsEWhBANAtlCCo4WZYABwT72v2a8/7U4JFpG6l4USbFEowQCQLZTgaGEmGADcU+9r9tgcJbjeUIIBAM6hBEcLM8EA4J56X7PrKcEdHR3S2xt9/Kx3WSjBFoUSDADZQgmOFmaCAcA99b5mU4LrDyUYAOAcSnC0MBMMAO6p9zWbElx/KMEAAOdQgqOFmWAAcE+9r9lRSvAXX3wRaKfUuyyUYItCCQaAbKEERwszwQDgnnpfs5kJrj+UYACAcyjB0cJMMAC4p97XbEpw/aEEAwCcQwmOFmaCAcA99b5mU4LrDyUYAOAcSnC0MBMMAO6p9zWbzwmuP5RgAIBzKMHRwkwwALin3tdsSnD9oQQDAJxDCY4WZoIBwD31vmZTgusPJRgA4BxKcLQwEwwA7qn3NXt0dndKcKlMCXY6lGAAyBZKcLQwEwwA7qn3NfvB1O6U4MJy/ctCCbYolGAAyBZKcLQwEwwA7okzLhaWG1+EH0xRgp0OJRgAsoUSHC3MBAOAe+KMi13vGleES2WRp4V4y0EJtiiUYADIFkpwtDATDADuSTI+PpiqyOhsRV5/iudpoSJd7+I/PiXYolCCASBbKMHRwkwwALjH9BibBCXYolCCASBbKMHRwkwwALjH9BibBCXYolCCASBbKMHRwkwwALjH9BibBCXYolCCASBbKMHRwkwwALjH9BibBCXYolCCASBbKMHRwkwwALjH9BibBCXYosTZCbgz4cmbwpJMzizJ3NycdSZnluRNYUnuTHjGN3YASBslOFqYCQYA98QdGx9MVaSwXJFSOf64sbBWkbG5+MtACbYocXYCPn5akP6pNeM7erX0T63J17PzxpcDANJGCY4WZoIBwD1xxsWnhcZ8RrDKwhqfE+x84uwEjBWWJDdelqH8inz4VN9s8IfZJRmeXkllR3CssCh974vGd0gBIE2U4GhhJhgA3FPva3bXu3Ki2d+wvP5U/7JQgi1KnJ2A4ekV6XtflNm5xViPOTOXTjkdnl5NrXADgC0owdHCTDAAuKfe1+xGzwKrxJkNpgRblLgleHh6VVZXV2M95spqMZVySgkG0IwowdHCTDAAuKfe1+zXn3anBItI3ctCCbYoJkpwseheCb7wqiz/qcOT7/xmXfYcLVnlX/1mXQ52eHLhlfmdb2AndybK0vm2LDctWJasogRHCzPBAOCeel+zx+YowfWGEhy2A5BiCf6z3z6VjucLW2473Tctf9z6JsJyNqYEnxwpy7/4P+bL7k5+p7UkIzMi82uA3fJLFRn6uizd78wXxtx4WfYe2/q3dKDNkz1HS3Kk180rzFOCo4WZYABwT72v2ZTg+kMJDtsBSLEE/+DkkPzgxNBGET7dl5fPj49LS1tfhOVsTAn+t6fMF9yo/n27Z7zgAFG9mKnOCpsujbnxshzprRZf9e89R0vy57e9wHK870S1HO874W3cbnr5dZTgaGEmGADcU+9rNiW4/lCCw3YAUizB114sbhTh031T8vnxN5EKcHU5k5fgv+0vGy+29br1tmK83ABR3X9vvjTmxmuX4CO9nhxo82TfCU9ah6pfO9ztbZThvcfsmjWmBEcLM8EA4J56X7MpwfWHEhy2A5DyOcHXRpfkv5x6Lr//yzFpOT9Qx3ImL8E/7PZSL7FJ/d3jsvFiA0T1+IP50pgbr12CW4fKcqCtWoRVCf6PF7e+NhzupgS7FmaCAcA99b5mRy3Bv/3tb+WLL76QL774Qv7iL/4i0s/UuyyUYIviQgk+3ZeX7/3qrRxsHZY/Ozm87Rzh8OWkBAO2c7UE/8n1zZlg9T2mfweFEhwtzAQDgHvqfc1mJrj+UILDdgBSLMGn+6bl8+NvpaWtT66/XKkeGn1yWDpeLEZYTg6HBmznwuHQQSW4dWjzglqcE+xmmAkGAPfU+5pNCa4/lOCwHYAUS/Dnv9p6EayrzxfkB6eG5QcnhiIsZ2MujLXfoWpXHJ0AACAASURBVAtjfY8LY8Ehzz+WpcuSC2NlCSU4WpgJBgD31PuaTQmuP5TgsB2AFEvw/2h/vO22jheL8qNzzyIsZ+M+IumfO/ARSf+Sj0iCI6aWKjJUKMttSz4iKWsowdHCTDAAuKfe12xKcP2hBIftAKR8TnBcjSrBufGyXHhVloNXPfnOr9eNl12/7/x6XQ5e9eTCK/M738BO7kxWPxbppgXLklWU4GhhJhgA3FPvazYluP5QgsN2ABKW4JVV90owALiCEhwtzAQDgHvqfc2mBNcfSnDYDsD0ivS9L8rs/GKsx/w4tyh974u7viNICQbQjCjB0cJMMAC4p97X7NHZ3SnBpTIl2OnE2QkYKyxJbrwsz/IrMj27KHNzc5EVPi2lVkzHCumUbQCwCSU4WpgJBgD31Pua/WBqd0pwYbn+ZaEEW5Q4OwFff5qX/qk14zt6tfRPrcnHT9E+TxgAsoQSHC3MBAOAe+KMi4XlxhfhB1OUYKcTZyfgzoQnY4UlmZxZqmsWOC2TM0vyprAkdybs+uxOAEgDJThamAkGAPfEGRe73jWuCJfKIk8L8ZaDEmxR4u4EAADsRAmOFmaCAcA9ScbHB1MVGZ2tyOtP8TwtVKQrwcc7UoItCiUYALKFEhwtzAQDgHtMj7FJUIItCiUYALKFEhwtzAQDgHtMj7FJUIItCiUYALKFEhwtzAQDgHtMj7FJUIItCiUYALKFEhwtzAQDgHtMj7FJUIItCiUYALKFEhwtzAQDgHtMj7FJUIItCiUYALKFEhwtzAQDgHtMj7FJUIItCiUYALKFEhwtzAQDgHtMj7FJUIItCiUYALKFEhwtzAQDgHtMj7FJUIItCiUYALKFEhwtzAQDgHtMj7FJUIItSpydgBeFokzPLMhgvihD+RXrDOaLMj27KC8KReMbOwCkjRIcLcwEA4B7TI+xSVCCLUqcnYDp2QXJjZel+21JBvNFGfmwGtlgvijdb0upbGjTMwvSM5HOYwGALSjB0cJMMAC4x/QYmwQl2KLE2QkYzK9K99uSTM8uyPxyUVZXVyNbXCnK9OxCKkV4MF+UwTyzwQCaCyU4WpgJBgD3mB5jk6AEW5Q4OwHD0ysyMFUttHEyv7wmA/mVXd/QhqdXZXh69x8HAGxCCY4WZoIBwD2mx9gkKMEWJW4JHp6uzuzGSbFYTKWcNroEnxwpy097y/KnN8vypzc9axx5WJaTz8ty8y1gP9MDUDOgBEcLM8EA4B7TY2wSlGCLQgmO5ofdnvzjX5Zkz1E7/ZN/KMl/v1+W4Y8VwGqjsxW5P1WWrnfmB6OsogRHCzPBAOAe02NsEpRgi2J7Cf69YxPyi86XW25rae+XPzz+PsJyNqYE/7DbM15yo/q7x2WZXxPAenPFitx7b35ASupIryeHuz3jy6GjBEcLM8EA4B7TY2wSlGCLYnsJ/kXnS/l3X77dKMJ/ef6xfP6rN3Lq4VSE5Uxegk+OlK2eAfb7Z1+WZGTGfMEBopgrVqyaEdb/lqL+zN5jJUqwo2EmGADcY3qMTYISbFFsL8G58WoR/r0v38t/O/NYPj8+HqkAV5czeQn+aW/ZSJlN4sLLivFyA0R1f8r8oJQb31pmD3Z4su+EJ61Dm3//Bzs2v7bnaGnj+9XXW4fM/w4KJThamAkGAPeYHmOToARbFBdKcG68LP+1fVj+9dFX8re33tSxnMlL8Bc5dw6FVloecEg03PFixvygpMqu//Z9JzYPdVZFd++xkhzp9Ta+xkywu2EmGADcY3qMTYISbFFcKMF/ef6xfO9X7+R/Xx+WP/hyQn7uO0c4fDmZCQZsd9+C84LDSrAqvPr/q5ngPUer/6YEuxtmggHAPabH2CQowRbF9hLc0t4v/+H45jnAP+98KX9w7K38vHM0wnI25pzgf+TQOcH/lHOC4ZBPRXvOCdbL7OHu6kxvrZngA23exmHTlGA3w0wwALjH9BibBCXYothegoMugvXzzlH5N1+mc2Gs3DhXhwZ2w6eifVeH1v+WWofKgecE+88DPtDmbfy/6eVXKMHRwkwwALjH9BibBCXYothegpNo9OcE2zwjrD4neGSmAlhtdLYi99+Xpeut+cEoqyjB0cJMMAC4x/QYmwQl2KJQgqM7OVI9R/iLnGeVnz4oy4nhstx4A9gvN+72AOYCSnC0MBMMAO4xPcYmQQm2KHFL8MDUqiyuFGM95sLKmgzk3SvBAOACSnC0MBMMAO4xPcYmQQm2KHF2Agbzq9L9tiTTswuysLImxWIxsuXimkzPLkj32+1XYm20p1OrqZRtALAJJThamAkGAPeYHmOToARblDg7AfmZecmNl6X7bUkG8qsylF+JTBXoNDa0/My8fPVu3fgGDwBpogRHCzPBAOAe02NsEpRgixJnJ+BFoSjTswsymC/KyIdV6wzmi5KfmZeR/LLxjR0A0kYJjhZmgmGLhbWKrHkVKX+zbXrliqyUNnf654pifBkBW5geY5OgBFuUuDsBPRMleTZdrGsWOC2D+VVmgAE0LUpwtDATDBuslioiFZFKZfs2Wq6ILKxVd/xNLydgC9NjbBKUYIsSdycAAGAnSnC0MBMMk+aLFVkuVUQkoP1q8SoVmV8zv7yALUyPsUlQgi0KJRgAsoUSHC3MBMOotcoO9febVCpS9CxYXsASpsfYJCjBFoUSDADZQgmOFmaCYdLSeqQKLCLVw6KZDQaqTI+xSVCCLQolGACyhRIcLcwEw6SVUsSZYKmeL6wKgOnlBkwzPcYmQQm2KJRgAMgWSnC0MBMMk1ZK0bfVSkWqBWCNq0QDpsfYJCjBFoUSDADZQgmOFmaCYdLievSZYK/MTDCgmB5jk6AEWxRKMABkCyU4WpgJhknzxYp46oOBa9bhiiyvm19ewBamx9gkKMEWhRIMANlCCY4WZoJh2uJaRarzweEleN2ryNyaGF9WwBamx9gkKMEWhRIMANlCCY4WZoJhg4X1ipS/6cCVymYZrkj1o5HmihWZ48rQwAbTY2wSlGCLEmcn4M6EJ28KSzI5syRzc3PWmZxZkjeFJbkz4Rnf2AEgbZTgaGEmGLaYK1ZnhYueyJpXkZX1ysZHIqmvm15GwBamx9gkKMEWJc5OwMdPC9I/tWZ8Q6qlf2pNvp6dN74cAJA2SnC0MBMMhJsvVmSOq1HDQqbH2CQowRYlzk7AWGFJcuNlGcqvyIdP9c0Gf5hdkuHplVQ2tLHCovS9Lxrf4AEgTZTgaGEmGAhXLossr5tfDsDP9BibBCXYosTZCRieXpG+90WZnVuM9Zgzc+mU0+Hp1dQKNwDYghIcLcwEA8FWvc1zkxfWK5yTDKuYHmOToARblLgleHh6VVZXV2M95spqMZVySgkG0IwowdHCTDAQYK1agNVFusoVkfki2zzsYXqMTYISbFFMlOBi0b0SfOFVWf5Thyff+c267Dlassq/+s26HOzw5MIr83/cwE7uTJSl821ZblqwLFlFCY4WZoKBTfPFisytiZQrWz+uqVKpyCqzwbCI6TE2CUqwRbG9BP/Zb59Kx/OFLbed7puWP259E2E5G1OCT46U5V/8H/Nldye/01qSkRmR+TXAbvmligx9XZbud+YHpN1wsMOT1iFzj08JjhZmgoFNc8WKrHnqU4v1Ily9ZUG7WjVgkukxPglKsEWxvQT/4OSQ/ODE0EYRPt2Xl8+Pj0tLW1+E5WxMCf63p8wX3Kj+fbtnvOAAUb2Yqc4K7/ags++Et+Xv5EhvfR+fdqS3+vO1vudghyf7TlTL756jJUqwA2EmGNi0sCbimwTekkpFZN6C5QRMja2NQAm2KLaX4GsvFjeK8Om+Kfn8+JtIBbi6nMlL8N/2l40X23rdelsxXm6AqO6/3/1BZ98JTw52VIuvKquqGO89VpLD3Zsl+UivJ0d6q1/PjZdl77GS/Pltb6PY6n9rB9qqt6v733fC27ht77HSxs8c6fVk77HaJbqRKMHRwkwwsMl/GHRQip4YX04grbF0N1CCLYrtJTg3XpZro0vyX049l9//5Zi0nB+oYzmTl+Afdnu7VlZ3y989LhsvNkBUjz/s/qATVoIPtFVvCyqrqiQfaPM2ZoJVCT7SW/1ZfeY3aCZ43wlPDndXH1s9fhoowdHCTDCctFaR+Uaen7tWkVI5+t/NIucGw7C0xtLdQAm2KC6U4NN9efner97KwdZh+bOTw9vOEQ5fTkowYLu0SrD+N6IKqjp3d8/RavHV/18vvv4S3DpUlgNt1SKsbvuPF7eX4MPdm2W53kOwk6AERwszwXDRSqkiRa9x97e8Xj3nN2oqIjK/Zn49oHmlNZbuBkqwRbG9BJ/um5bPj7+VlrY+uf5ypXpo9Mlh6XixGGE5ORwasF3ah0MH3RY2E7z3WGmjwEYtwfr96YdPpznIUoKjhZlguGS+WJEFrbAuJJ2R/WZGuZ4CrFIqV2RuTbhiNIxIczxtNEqwRbG9BH/+q60Xwbr6fEF+cGpYfnBiKMJyNubCWPsdujDW97gwFhzy/GNZulK6MFatEuw/J1jN4KrvO3SjvhK891hpS5lW95UWSnC0MBMMl8ytbT1v16tUb0tyn16E84DDslSqFhLT6wXNJ83xtNEowRbF9hL8P9ofb7ut48Wi/OjcswjL2biPSPrnDnxE0r/kI5LgiKmligwVynI7ox+RpFPnBaf5mJTgaGEmGC4petsL67pXqc7Ixri/Va/6GcCxU6kkn40GYjA9ridBCbYotpfgJBpVgnPjZbnwqiwHr3rynV+vGy+7ft/59bocvOrJhVfm/7iBndyZrH4s0k0LlmW36TPCaaIERwszwXDF0lpl20HLlUpFKpWKLK7Hu89EBfibx/fK5tcNmo/psT0JSrBFMVGCV1bdK8EA4ApKcLQwEwwXLKyJbK/AmylXNs/NnY9wf/PF5AVYz0qpwrnBSJXpMTYJSrBFiVuC+94XZXZ+MdZjfpxblL73xV3f0CjBAJoRJThamAmGC0rlnQtrqfxNQViTHe9vrRzvYlhhqYjEno0G4jA9xiZBCbYocXYCxgpLkhsvy7P8ikzPLsrc3FxkhU9LqRXTsUI6ZRsAbEIJjhZmgmGz+WL144vUYc87ZfmbIhp+f2VZXGtc+dVTrojMr1WYEUYqTI+xSVCCLUqcnYCvP81L/9Sa8Q2plv6pNfn4KdrnCQNAllCCo4WZYNhsQfv4oijVtSIVqfX5vXMxPw4paorezrPQQCOYHmOToARblDg7AXcmPBkrLMnkzFJds8BpmZxZkjeFJbkzke4VWQHABpTgaGEmGFb6Zka1VK7U3Vm9b84Png+7v10swSIiS9881ryJ9YamYXqMTYISbFHi7gQAAOxECY4WZoJho7m1iqyWyhKnslYqFSn6Pr93bq0iy+vlhl4MKyzlbz42yfQ6RLaZHmOToARbFEowAGQLJThamAmGjRpx3u68Nhs7X9z98qtn3RPODcauMj3GJkEJtiiUYADIFkpwtDATDBuVE8/YVu9j7pv788qSyizwxqNXKrLC1aKxi0yPsUlQgi0KJRgAsoUSHC3MBMMm88WKFL3Gbd9rXkVWSunOAqtURGSB2WDsEtNjbBKUYItCCQaAbKEERwszwbDJ8npjC2vUj1barXjlSs2rVQNxmR5jk6AEWxRKMABkCyU4WpgJhmnzxUr1asprFSmb66u7koqIrJYqXC0aDWd6jE2CEmxRKMEAkC2U4GhhJhg2mCtWZN0zO2u7O6n+TovflHzT6xnZYXqMTYISbFEowQCQLZTgaGEmGDZYLu3+5/eajFepyDznB6OBTI+xSVCCLQolGACyhRIcLcwEw7SFtYpUJ4CzW4KlIlL0zK9rZIfpMTYJSrBFoQQDQLZQgqOFmWCYNL9W/fiiZsnSeoUZYTSE6TE2CUqwRYmzE/CiUJTpmQUZzBdlKL9incF8UaZnF+VFoWh8YweAtFGCo4WZYJi0sFaR1ZIiGVb9HVdK1QJjer3DfabH2CQowRYlzk7A9OyC5MbL0v22JIP5oox8WI1sMF+U7relVDa06ZkF6ZlI57EAwBaU4GhhJhgA3GN6jE2CEmxR4uwEDOZXpfttSaZnF2R+uSirq6uRLa4UZXp2IZUiPJgvymCe2WAAzYUSHC3MBAOAe0yPsUlQgi1KnJ2A4ekVGZiqFto4mV9ek4H8yq5vaMPTqzI8vfuPAwA2oQRHCzPBAOAe02NsEpRgixK3BA9PV2d246RYLKZSThtdgk+OlOWnvWX505tl+dObnjWOPCzLyedlufkWsJ/pAagZUIKjhZlgAHCP6TE2CUqwRaEER/PDbk/+8S9Lsueonf7JP5Tkv98vy/DHCmC10dmK3J8qS9c784NRVlGCo4WZYABwj+kxNglKsEWxvQT/3rEJ+UXnyy23tbT3yx8efx9hORtTgn/Y7RkvuVH93eOyzK8JYL25YkXuvTc/ICVxoM3b8u+DHZ60DplfLkpwtDATDADuMT3GJkEJtii2l+BfdL6Uf/fl240i/JfnH8vnv3ojpx5ORVjO5CX45EjZ6hlgv3/2ZUlGZswXHCCKuWIl1Rnh1qHylr+Xw91e7Ps60ObJgTZPjvRW3yRT900JdifMBAOAe0yPsUlQgi2K7SU4N14twr/35Xv5b2cey+fHxyMV4OpyJi/BP+0tp1piG+HCy4rxcgNEdX8qvcFn77GSHOyoFl+9tO45WpIjvZ4c7vZk77HSlrKsF13lz29v/vuPL3kb37fnaEn2Hitt3O+R3ur9pT3IUoKjhZlgAHBP2mNqI1GCLYoLJTg3Xpb/2j4s//roK/nbW2/qWM7kJfiLnDuHQistDzgkGu54MZPOwKOKrX7bvhPV4usvwQc7qv+vSqw+23ugzZODHV7NmWB1vwc7vI3SnSZKcLQwEwwA7kl7TG0kSrBFcaEE/+X5x/K9X72T/319WP7gywn5ue8c4fDlZCYYsN39lM4L1kvwwY7tBVcvwbnxzb97/Xty45uHQdcqwYe7q1/bd6L69bQHWUpwtDATDADuSXtMbSRKsEWxvQS3tPfLfzi+eQ7wzztfyh8ceys/7xyNsJyNOSf4Hzl0TvA/5ZxgOORTMd1zgtUsryqs+054G7cf6a3O2u49VtqYyfUX5dz4ZglWs8H611QJ1g+nNjHIUoKjhZlgAHCPiXG1USjBFsX2Ehx0Eayfd47Kv/kynQtj5ca5OjSwGz4VzVwd2v83o2Zt9Znfgx3eRklWs8T+EqwOo1bnBOfGq2VazSTvO+Ftu3p0WijB0cJMMAC4x8S42iiUYItiewlOotGfE2zzjLD6nOCRmQpgtdHZitx/X5aut+YHo92kZpNNPDYlOFqYCQYA95ge35OgBFsUSnB0J0eq5wh/kfOs8tMHZTkxXJYbbwD75cbdHsCi0GeETaAERwszwQDgHtNjfBKUYIsStwQPTK3K4kox1mMurKzJQN69EgwALqAERwslGADcY3qMTYISbFHi7AQM5lel+21JpmcXZGFlTYrFYmTLxTWZnl2Q7re7P0vydGo1lbINADahBEcLh0MDgHtMj7FJUIItSpydgPzMvOTGy9L9tiQD+VUZyq9Epgp0GhtafmZevnq3bnyDB4A0UYKjhZlgAHCP6TE2CUqwRel50Cftj6fregJfFIoyPbsgg/mijHxYtc5gvij5mXkZyS8b39gBIG3tj6el50Gf6eHF+jATDADuMT3GJkEJtihPBp7J2d63dT+JPRMleTZdrGsWOC2D+VVmgAE0rbO9b+XpwDPTw4v1YSYYANxjeoxNghJsUUZfvpRTPS+NbxQAgMY49dWovHz50vTwYn2YCQYA95geYxONz5Rge/Lu3Tu5eO+58Y0CANAYF+6OyMTEhOnhxfowEwwA7jE9xiZBCbYoy8vLcu5at/GNAgDQGGc7umRlZcX08GJ9mAkGAPeYHmOToARbluudd+TKyILxDQMAkMzl4Xm50fWV6WHFiTATDADuMT3OJkEJtiwvXryQs/deGd8wAADJnLn7UkZHR00PK06EmWAAcI/pcTYJSrBlWV5elgs37xnfMAAAybTf6JHl5WXTw4oTYSYYANxjepxNghJsYZ4ODkr7w3fGNw4AQDxtvW9l4BkfjRQ1zAQDgHtMj7VJUIItzNrampy5fNP4xgEAiOf0pZysr6+bHk6cCTPBAOAe02NtEpRgS/Py5Uu5/GjM+AYCAKjPpYev5dXr16aHEafCTDAAuMf0eJsEJdji3H/YJ5eeThvfSAAA0Vx6kpcHj/pNDx/OhZlgAHCP6TE3CUqw5bl8o0uujCwa31AAALVdGZ6XjlvdpocNJ8NMMAC4x/S4mwQl2PJUKhU5e6VTLj2bNb6xAACCXRyckbZr3VKpVEwPG06GmWAAcI/psTcJSrAjuXXnnpx/9Nb4BgMA2Kr94bh0fnXf9DDhdJgJBgD3mB5/k6AEO5T+p8/k9K1+uTKyYHzDAYBmd3lkXk7d6pfHg0Omhwfnw0wwALjH9DicBCXYsUx/+CCXb96Rs7efytUXy8Y3IABoNldHl+Vs91O5cvOOFL7+2vSwkIkwEwwA7jE9HidBCXY0k5OTcrP7rpy7fkfa7z2Xy0Nzcn1s3fgGBQBZc31sXS4NzcmF+y+k7cZXcvP2XZmcnDQ9DGQqzAQDgHtMj89JUIIdz+Liorx+/Vru3u+V9is35PSlG3Km47a0dfXLqRsPAAAxtHX3y5mO23L60g1pv3JD7t1/IK9fv5aFhQXTL/uZDDPBAOAe00WWEkw24nmeLC0tyezsrMzMzAAAYpidnZWlpSXxPM/0y3pThJlgAHCP6SJLCSaEEEKIs2EmGADcY7rIUoIJIYQQ4myYCQYA95guspRgQgghhDgbZoIBwD2miywlmBBCCCHOhplgAHCP6SJLCSaEEEKIs2EmGADcY7rIUoIJIYQQ4myYCQYA95guspRgQgghhDgbZoIBwD2miywlmBBCCCHOhplgAHCP6SJLCSaEEEKIs2EmGADcY7rIUoIJIYQQ4myYCQYA95guspRgQgghhDgbZoIBwD2miywlmBBCCCHOhplgAHCP6SJLCSaEEEKIs2EmGADcY7rIUoIJIYQQ4myYCQYA95guspRgQgghhDgbZoIBwD2miywlmBBCCCHOhplgAHCP6SJLCSby4cMHef36tQwMjciDvifS8/CJdPX0AgBi6Hn4RB70PZGBoREZGxuTQqFg+mU+02EmGADcY7rIUoKbNBMTE/LgYZ+cPN8hZ7ufyonbz+XM/TfS1jclFwc+ysWBrwEAsXyUtr73cvremJy4/VzOdj2Rk+c7pPdRv0xOTpp++c9cmAkGAPeYLrKU4CbLu/dTcv5al1y4Oyztj/PGNyIAaBbtj/NyoWdIzl/rkon3U6aHg8yEmWAAcI/pMTkJSrBDWVlZka6v7smFO0+l4+WK8Y0HAJpVx+iynL/9RLq/uifFYtH08OB8mAkGAPeYHouToAQ7kkKhIOc6uuTKyLzxjQYAUHVlZF7arnXJ119/bXqYcDrMBAOAe0yPwUlQgh3Iu4lJaevqM76xAACCne/qk4nJ96aHC2fDTDAAuMf02JsEJdjyjI5Pyokbj4xvKACA2n5zrVfGJjhPOE6YCQYA95ged5OgBFucQqEg5zqZAQYAV5zrfMSh0THCTDAAuMf0mJsEJdjSrKysyJmrXcY3EABAfU5f6ZTV1VXTw4hTYSYYANxjerxNghJsaW7eucdFsADAQZeH56Tzq/umhxGnwkwwALjH9HibBCXYwkxNTUnb7afGNw6470CbJ3uOlrZpHdr+vYe7vdCv7TlaksPdXuTH3Xss/PH2nag+zoE2b9tj+B3pjf6YOznY4cneY6Uty2H6+UF2net6LPl83vRw4kyYCQYA95gea5OgBFuYKze6+BxgNNTBjmrxrPU9jSrBe4+VthRM//2G3Zf/9gNtXkOLql6CG33fgF/H6LJ03Ow2PZw4E2aCAcA9psfaJCjBlmViYkLaekaMbxjIFn8J9s8Q58Y3y6o+i6u+Xy+o+tf9M7VHeoOL9N5jpY0Sqn7WX4RrlWC1bHuObi3Y+v0d7NhcPjXLrP/e6vH999U6VN612Wc0tws9z+T9ez42KUqYCQYA95geZ5OgBFuWBw/7pP1x3viGgWwJmwlWBfBIr7dRDlUJ1MukKqj6bOrh7q2HF+fGw0vwvhOeHGjbLJxhM8F++tf0En6426tZuGuV4Nz41oLtP0waaJT2/il52PfY9LDiRJgJBgD3mB5nk6AEW5bTFzqMbxTIHn8JVgVSn5X1H7asF0X1PUHnGOsldKeZ4J1KsLpdn/H1z9Tq5xOr84v176+3BKvH888oA4m98eTMxWumhxUnwkwwALjH+DibACXYonz48EHOc0Es7AK9DOqzv3opVSVYn3GtNRMcxn9OsHrs1qFy5BKsyrReimudk6yWPTe+OeucG9887Fstx07nBHOuMBrtXFe/FAoF08OL9WEmGADcY3qMTYISbFFev34tp+48N75RIHv8M8HqXNq9x0obs7Rxzgn2X+HZf//+2eKoJTg3vrXA6ufx+gu1fwZX/161HGod6Idyq6/775tzgtFIZ+6MyNjYmOnhxfowEwwA7jE9xiZBCbYowyMjcub+G+MbBQCgMc7cG5Osj12NCDPBAOAe02NsEpRgi/Kw/4m09U0Z3ygAAI3R1vdeHj1+anp4sT7MBAOAe0yPsUlQgi1KT+8TuTjw0fhGAQBojIuDH6WnlytE7xRmggHAPabH2CQowRYl7k4AAMBOFwc+SmdPr+nhxfowEwwA7jE9xiZBCbYolGAAyBZKcLQwEwwA7jE9xiZBCbYolGAAyBZKcLQwEwwA7jE9xiZBCbYolGAAyBZKcLQw/gEA0kQJtijsBABAtlCCo4XxDwCQJkqwRWEnAACyhRIcLYx/AIA0UYItCjsBAJAtlOBoYfwDAKSJEmxR2AkAgGyhBEdL3PHv3h/vEwAAH1xJREFUF6evyLmLsNlP//pnoc/fX/7V/zK+fEActbZruIESbFEowQCQLZTgaIk7/v3DmSumF53skPZLHaHPX9ulq6YXj5BYqbVdww2UYItCCQaAbKEERwslOLuhBJMshhLsPkqwRWl0Cf77U1fkRDsAIMzfn7qyq4MsJThaKMHZDSWYZDGUYPdRgi1Ko0vwL05fMf4h2gBgs1+cpgTbkEaX4MHBQfnss8+2aWlpSbysg4ODcujQoW23Hzp0KPAxC4WC7N+/X1pbWxM/touppwTncrmNdeaPek4HBwcbtmyFQmHHbaTZnrtcLrdlHdR6TurJ/v37JZfLbfxb/3vZv3//xu2fffZZosfZjbS2tm77m6cEu48SbFEowQCQLkqwHdnNmeD9+/dH3oGPsgMeVoJV/CWi2ROnBAetv5aWll0pwXoBE6mWM/9ttdLa2pqpkqxvv+qNh0bep8j2NxYGBwc3CnKSx9vNAn3o0KEt2x4l2H2UYItCCQaAdFGC7QglOLuptwSrsuvP/v37txWRpAkqwSLVwqPPWtZKlktwI2aARbYWyJ3Wl60l2P93TQl2HyXYolCCASBdlGA7kmYJrnUYpn5IrP9QWbXjHqcE6yVAFSx1v4ODgxvFz78Try+revzW1tZEJbveYlNPIQxKnBLc0tKy5TFVcdLXo77O1HpTz5n6/YIOY9UTVoL1ouZ/7tTj5XI5aW1t3Xboe9ByqZ/Vn/egw671+1bLoW5Tv8fg4GBdM9X1Rj0H+/fv3/aGQz3brh79azu9KaU/l/rv6f+3f70HHdLuPy1C/z3UuvVv2/ph2/pMuP/xKcHuowRbFEowAKSLEmxH0irBqmCp+EtSlB35RpRgtTOtCoXa6W5padkoX/4ieOjQISkUCk1Rgv3rWK2vsJlgvbSqnw0ruHrCvkd/DtVjhs3w15rZ9Jdpf4lTz4P/fFn/Mqj7yuVyqZRgvXTribrt6vGv452WPUoJ9v9t+H826OdVYVe/R62/YXU//sKu3z8l2H2UYItCCQaAdFGC7UhaJThoFkrfsfWX4KBZvUaUYPX//h11/Wf1mUH/DGHY4/pnuPXl9y+Tf/asUCgE3ket7w+6zZ84JVhfT0G3BS2PXsDU771T2a9nJlg9nr/o+Utw2HL5C7x+v0HL4N/2GnVht52iz8bX2o5rbbt6CoXCtjc0ks4Eq+3U/4aI/verb8v+bXqnw+r9BV9fdhVKsPsowRaFEgwA6aIE2xGTJTjsyrT+mS0TJbgR52OaTtwSrP4/aN2poqniL6JJS7B+KLC/MPkPo9Ufu9ZyxSnBSWbg48a/DfqPRohTgvXvC5sxVol6OLRaHv159pfgsDcN4pZgZoKzhRJsUSjBAJAuSrAdMXk4tP+qtfr3qp1gtVMskl4JDpqJC1rmeuPC4dD6surrOqw46lcbVs+P/jyFHUIcVKz279+/ZRmCClNQWQ+6P325wkqw+r6gw6GDljnp4dA7bT/+30efcY1TgkW2H6bsL5hhV4f2n9+905sF+t+v//xwPTuVYLUMtQ6vpgS7jxJsUSjBAJAuSrAdMXVhLH+ZVTOI6rxU/TDUtEuwWnb/4djNVILVebD6sgRdpErNLqrnTH8jQ/1MWAne6ZBz/bDsoIss6fehDv31L5d/2YP+HbQM/kOiBwcHUy3BIpsXh8rlcrFLcFDp1H+vsPPy9QuDqYt1iWxdL/rP6n+/apmiHJruX66gN7+4OnT2UIItCiUYANJFCbYju1mCidnUU4JJNpOFjw3jc4KzhxJsUSjBAJAuSrAdoQRnN5Tg3Y//o4A+++wz+aM/+qNtt+mzpv6Pdwq66FcjE3TItysJ+qgtSrD7KMEWhRIMAOmiBNsRSnB2QwkmWQwl2H2UYItCCQaAdFGC7QglOLuhBJMshhLsPkqwRaEEA0C6KMF2JO7494vTV6T9Ugcs9tO//lno8/fTv/6Z8eUD4qi1XcMNlGCLQgkGgHRRgu1Io8c/AABqoQRbFEowAKSLEmxHKMEAgDRRgi0KJRgA0kUJtiOUYABAmijBFoUSDADpogTbEUowACBNlGCLQgkGgHRRgu0IJRgAkCZKsEWhBANAuijBdoQSDABIEyXYolCCASBdlGA7kuQjks5dRFrq+VgYnhuYwscXIQpKsEWhBANAuijBdiTu+PcPZ66YXvSmSvulDp4bYn3q2U7RvCjBFoUSDADpogTbEUqwG6EEExdCCUYUlGCLQgkGgHRRgu0IJdiNUIKJC6EEIwpKsEWhBANAuijBdqTRJXhwcFA+++yzbVpaWhIv6+DgoBw6dKjm1/XHzOVyiR+zUSkUCluWrd5QgokLoQQjCkqwRaEEA0C6KMF2ZDdngvfv3y+FQiHSckQphrVKcC6X23YfcYv3TmW73qgCPDg4GPs+kpTgQ4cOBb4xEfW5qZVDhw7V/L3279/f8MeMmv3790tra2tqj6ceU/8d9+/f35A3gFwJJRhRUIItCiUYANJFCbYjPQ/6pP1xvu71a1sJjjO7Gudx4qS1tTVxGWvETHAul4tcyKIuc60S7J+NVzP1Sd4MqJVay9yI5yBK9G3+0KFDqZdw06EEI4pT13pkfn7e9Oa6YyjBMVCCAaA2SrAdeTLwTM72vqt7/cYpwfqM5P79+zdu9x827T90WBWJsHIapdyFPbZ+CPX+/fsDD6lubW2NPZvX2tq6bQY2zmHarpXglpaWwJ/P5XINfYNBj00lOMk243IowYji1OVOWV1dNb257hhKcAyUYACojRJsR0ZHR+VUz8u612+9JbilpWVLKWhtbd1ShmrN5Kqv1SrBtQpOrccOmq32P07SQnPo0KHEhwHvRgkOO4faX9wLhYK0tLQEntMcVoLVGwr+qDc4RKrPi/6GgP7vsMdTZVYdZq3e0AhaZrVs/q/96Ec/2rIeCoXCxvLqb5DEiToEO2g71X8n9TtkLZRgRHHifIfpTTVSKMExUIIBoDZKsB159+6dXLz3vO71W28JDiqberkJOp/XX4LizgTXemz1OHqiHg6tL6N6fP0cWFXOw2aCg34+6DaRxpdgVUb19aIfqhx1VrVWCQ4r/lFKcNjjqfWpH3Ksl3d9mfVl07+mSq9+/7lcrmElOOiQ71wut+W+W1paKMFoStdfFeV6V4/pTTVSKMExUIIBoDZKsB1ZXl6Wtmu3616/jSjB/kOiVfyH0u5UgvXZxZ2WI+ix1WOo2xp9TnBYuasnjS7BQW8c+Mum/hyEHaJebwmOOhMc9nj+5aq1zGEl2P+1RpZR/ZB6/ff3/67+Ip6VUIKxk3MPJ2RgYMD0phoplOAYKMEAUBsl2J7c6Lwjl0fm61q/jTgcWv+3/3tVYdCv+lyrnAbNrOmzq7Ue278MQTOFSQ6HVqUoSdIqwUGzqv43GaLMBNc6J1h/XoJKcK3Ha1QJHhwclJaWlo3/NipqGwqa+dXXEyUYzaqtq1+mp6dNb6qRQgmOgRIMALVRgu3Jixcv5Oy913Wt36QXxvKXWXUYsCoL+iHBUUqwyPbzQvXSEfbY+uHLeklStye9MJaKKvMmPyc4yuHQ6t/+79ULm/7RQ2ElWN1/0NWh1WP416v6/lqPV6sE+4u9vmxBpV99fJH6nkYdDq2/maO2Nf95whwOjWZ16sI1qVQqpjfVSKEEx0AJBoDaKMH2ZHl5WS7cvFfX+o1SgknjksaFsfwzlf6LTOlvTOxUglX850P738TwXxlcleawx6tVgoOWWS2b/2vqZ/1XCm9kCVa/h7pP/XfiwlhoRhf638uTwWemN9PIoQTHQAkGgNoowXbl6eCgtD2M/lFJlOB004gSbENUEbTh44P0w7/TTqPPO7cllGDUcvZqpxSLRdObaeRQgmOgBANAbZRgu7K2tiZnLt+MvH5tLlpZTFZKsE2Jeli6fzY7TD3RD/HOUijBCNP+4I0MjYyY3kTrCiU4BkowANRGCbYvL1+9kit9Y5HWL0Ur3VCCGxd17nias8D+Q89tmAnfjVCCEebKzW5nzgVWoQTHQAkGgNoowXbmwaN+ufx0OtI4136pAyn56V//rK59ENPLi+ZUz3aK5tF2/StZWFgwPbzVHUpwDJRgAKiNEmxvLt/okisjC8Z3nAAAbjt985G8f//e9LAWK5TgGCjBAFAbJdjeVCoVOXu1Uy49mzW+AwUAcNNvbjyUqcJH00Na7FCCY6AEA0BtlGD7c+vOPTn/KPoVowEAyI2X5VTHVzLp6AywCiU4BkowANRGCXYjj58+kzOdj+XyyLzxnSoAgN3O3H8j5691O3kOsD+U4BgowQBQGyXYneSnp+XyzTty7vaAdLxYNr6TBQCwy/n+93Lycqc8fTbi3FWgw0IJjoESDAC1UYLdy+TkpNy8fVfabvTI+fujcnnok1wfWze+8wUASNf1V0U53zch57v75ezFa/J08JkUi0XTw1RDQwmOgRIMALVRgt3N4uKivH79Wu7e75XzV2/I2cs5OdNxW9q6+uXUjQdWO50D0KxMv/647HTugZy5flfOXO2U0xc65GZ3jwwMDMj09HRmZn79oQRTggGg4SjB2YnnebK0tCSfPn2SmZkZAEAGzc/Py+rqqukhJ7VQginBANBwlGBCCCGE2BpKMCUYABqOEkwIIYQQW0MJpgQDQMNRggkhhBBiayjBlGAAaDhKMCGEEEJsDSWYEgwADUcJJoQQQoitoQRTggGg4SjBhBBCCLE1lGBKMAA0HCWYEEIIIbaGEkwJBoCGowQTQgghxNZQginBANBwlGBCCCGE2BpKMCUYABqOEkwIIYQQW0MJpgQDQMNRggkhhBBiayjBlGAAaDhKcHayvr4ui4uLMjc3J7OzswCADJqfn5disSiVSsX0sJNKKMGUYABoOEqwu5mfn5dXr17JzTsP5MSF6/LbCzk5efW2nOvqk1M3HljtdA5AszL9+uO6k9d65MTlLvlN+zW5kPtKHj5+Kvl8XjzPMz0s7UoowZRgAGg4SrB7mZiYkFz3XTl3466cvftSLg/PyY2x0q4+jwAA+1x/vSbnHk3K2a7HcvrSdXn8dFBWV1dND1MNDSU4BkowANRGCXYn09PTcqPztpz/alCuvVw1vvMFALDLxad5abvWJUPDw1Iul00PWw0JJTgGSjAA1EYJdiN9Twfl4p0ncvX5ovGdLACA3c4/HJcL17tlbn7e9PCVOJTgGCjBAFAbJdj+3LpzVy72TRjfqQIAuKU9d1cmJidND2OJQgmOgRIMALVRgu1NpVKR89duyZWhT8Z3pAAAbjp165FMffhoekiLHUpwDJRgAKiNEmxvLt3okqujy8Z3oAAAbjtz65GzM8KU4BgowQBQGyXYzvQ86JOLTz8Y33ECAGTDuRt3Zd7Bc4QpwTFQggGgNkqwfXk++krO944Z32ECAGTL+WvdUqlUTA9zdYUSHAMlGABqowTblbW1NfntpVvGd5QAANlz9sG4DAyNmB7q6golOAZKMADURgm2K4+fDkrbQ64EDQDYHaevdEmxWDQ93EUOJTgGSjAA1EYJtieLi4ty/uZ94ztIAIDsuvA4L/1PB00PeZFDCY6BEgwAtVGC7cmLFy/k7L3XxneQAADZdvLCNWfODaYEx0AJBoDaKMH2pOPWHbkysmB85wgIs+doSfYcLcnBDm/jtiO9nuw5WpLWoeq/953wEj3G3mOljcfZe6wU+34Odngb96GWUV/OKPy/W72Srgtgt5zt7Jd8Pm962IsUSnAMlGAAqI0SbEeWlpbk9NXbxneMgDCHu6uF8ECbt6Wc6kVRfU/cx9h7rHr/6t/7Tnixi+S+E97GfR3s8BIV6jgOtMVfdmC3tT2alCcDA6aHvkihBMdACQaA2ijBduTt27dytueF8R0jIIwqpP7ZUfXvv3q4OVOsirA+q3ukt1oIVYlWhVrd/06zrq1DW+9f3Z//dvUY6t+/8+utM8tB368/vj4DrS9T0M+p2/ad8LYsl3ozQH3N9HMH+F1/VZSOzq9MD32RQgmOgRIMALVRgu3I89GXcuruK+M7RkCYPUdLcrjb2/h/dUh02EywPvt6uHvz/1VB9d//TiVYnyXWH0ef8T3Qtvn/+vfrs9e1vl/9Tur/9WUK+jlVgtXP+b+HAgyb/aa9w/TQFymU4BgowQBQGyXYjvQ9fSZne98Z3ykCgugzm7VmS/Vyqs/G6ufj+g+nVnYqwXoJV+XzSK+3ZbZZX66wEhz0/er+1P0HLVOUn9MP36YEw3YnL3fK6uqq6eFvx1CCY6AEA0BtlGA78tWDPjn/ZNr4ThEQxH9uriq7rUPRZoJ1YSU4N779nGC9SEaZCQ67r7CZYP/3+2d0w2aCFUowXHbqWo/Mz8+bHv52DCU4BkowANRGCbYjt75q7PgHNIr/kF9F3RZ23qx/9jSokAYJuzp01HOCVSENK8Fh36+fE6wKdq1zgg93ezVLsCrqaV+QC4jq5PUHMjMzY3r42zGU4BgowQBQGyXYjjR6/AMAoJZTNyjB1oQSDADpogTbEUowACBNlGCLQgkGgHRRgu0IJRgAkCZKsEWhBANAuijBdoQSDABIEyXYolCCASBdlGA7QgkGAKSJEmxRKMEAkC5KsB2JO/79/akrcqIdANDMWv7qZ5Rgl0MJBoB0UYLtSNzxj3EOAHDq/FVKsMuhBANAuijBdoQSDACIixLseCjBAJAuSrAdoQQDAOKiBDseSjAApIsSbEcowQCAuCjBjocSDADpogTbEUowACAuSrDjoQQDQLoowXaEEgwAiIsS7HgowQCQLkqwHaEEAwDiogQ7HkowAKSLEmxHKMEAgLgowY6HEgwA6aIE2xFKMAAgLkqw46EEA0C6KMF2hBIMAIiLEux4KMEAkC5KsB2hBAMA4qIEOx5KMACkixJsRyjBAIC4KMGOhxIMAOmiBNsRSjAAIC5KsOOhBANAuijBdoQSDACIixLseCjBAJAuSrAdoQQDAOKiBDseSjAApIsSbEcowQCAuCjBjocSDADpogTbEUowACAuSrDjoQQDQLoowXaEEgwAiIsS7HgowQCQLkqwHaEEAwDiogQ7HkowAKSLEmxHKMEAgLgowY6HEgwA6aIE2xFKMAAgLkqw46EEA0C6KMF2hBIMAIiLEux4KMEAkC5KsB2hBAMA4qIEOx5KMACkixJsRyjBAIC4KMGOhxIMAOmiBNsRSjAAIC5KsOOhBANAuijBdoQSDACIixLseCjBAJAuSrAdoQQDAOKiBDseSjAApIsSbEcowQCAuCjBjocSDADpogTbEUowACAuSrDjoQQDQLoowf+3vbvpyfLK4zg+r6bvoC/Bl+B6lm7dmk4XptNuZtrMwknTrprUzFiEIpaHG4EiKiq0ojxYRsXWodgS40OhUqne+p8FQ0edluIlnuscrs83+SRVBM3xqie/cKN5ZAQDUJURXHhGMEBaRnAeGcEAVGUEF54RDJCWEZxHRjAAVRnBhWcEA6RlBOeREQxAVUZw4RnBAGkZwXlkBANQlRFceEYwQFpGcB4ZwQBUZQQXnhEMkJYRnEdGMABVGcGFZwQDpGUE55ERDEBVRnDhGcEAaRnBeWQEA1CVEVx4RjBAWkZwHhnBAFRlBBeeEQyQlhGcR0YwAFUZwYVnBAOkZQTnkREMQFVGcOEZwQBpGcF5ZAQDUJURXHhGMEBaRnAeGcEAVGUEF54RDJCWEZxHRjAAVRnBhWcEA6RlBOeREQxAVUZw4RnBAGkZwXlkBANQlRFceEYwQFpGcB4ZwQBUZQQXnhEMkJYRnEdGMABVGcGFZwQDpGUE55ERDEBVRnDhGcEAaRnBeWQEA1CVEVx4RjBAWkZwHhnBAFRlBBeeEQyQlhGcR0YwAFUZwYVnBAOkZQTnkREMQFVGcOEZwQBpGcF5ZAQDUJURXHhGMEBaRnAeGcEAVGUEF54RDJCWEZxHRjAAVRnBhWcEA6RlBOeREQxAVUZw4RnBAGkZwXlU9f77sKM/OnoGAGiwv/ztkBFcckYwQFpGcB7t9P0HAFsxgjPKCAZIywjOIyMYgJSM4IwyggHSMoLzyAgGICUjOKOMYIC0jOA8MoIBSMkIzigjGCAtIziPjGAAUjKCM8oIBkjLCM4jIxiAlIzgjDKCAdIygvPICAYgJSM4o4xggLSM4DwyggFIyQjOKCMYIC0jOI+MYABSMoIzyggGSMsIziMjGICUjOCMMoIB0jKC88gIBkrWO3c33jj4duzfv5/E/nTwneidvfPCv2dGcEYZwQBpGcF5ZAQDJXvj4DtxeGS69l9HEx0emY43Dr79wu9nBGeUEQyQlhGcR0YwULL9+/fX/mtosirnbwRnlBEMkJYRnEdGMFAyI7i88zeCM8oIBkjLCM4jIxgomRFc3vkbwRllBAOkZQTnkREMlMwILu/8jeCMMoIB0jKC88gIBkpmBJd3/kZwRhnBAGkZwXlkBAMlM4LLO38jOKOMYIC0jOA8MoKBkhnB5Z2/EZxRRjBAWkZwHhnBQMmM4PLO3wjOKCMYIC0jOI+MYKBkRnB5528EZ5QRDJCWEZxHRjBQMiO4vPM3gjPKCAZIywjOIyMYKJkRXN75G8EZZQQDpGUE55ERDJTMCC7v/I3gjDKCAdIygvPICAZKZgSXd/5GcEYZwQBpGcF5ZAQDJatrBO/tbsdrHzyKvd3tOHz5cbz2waN47YNHsa/VjuEbj+P1jzbeNnzjcRy+/Dj2HGn/8n6HLz/7cV7/6FEM3/jfj9lzZOPHbL7/0x/j6Z9rz5GN993871LO3wjOKCMYIC0jOI+MYKBkdY7gw5cfx75WO9481X5msG6+7cDYxvfta7WfGbabI/jAWDsOjG18+73J9pYj+OmP8fTb6hq/L3P+RnBGGcEAaRnBeWQEAyWr+zPB+1r/P1ifH6Z7u9vx3mQ79rXaz4zgfa2N73/+/X5tBD/9MYzgNBnBFRjBAFszgvPICAZKVvdngvd2b3wmePMlynu7Nz67u/ntN0+1f3mJ9J4j7V/G8+sfPXrmpc0HxjY+07v50uan3/bH3mc/xtMjePPl0JsvqS7h/I3gjBqfuBDHLn6/Yw+EEQywtVc9go9d/D7GJy7Ufb1k307ffwAp+Yuxyjv/jsHxWFlZqfv6+90aMYIvzcxF1+Tijj0QRjDA1l71CO6aXIzp2bm6r5fs2+n7DyAlI7i88+/oG40HDx7Uff39bo0YwVevXo2O8Ws79kAYwQBbe9Uj+JMzV+PatWt1Xy/Zt9P3H0BKRnB553+kp1X31betGjGCFxcX47Nz/9qxB8IIBtjaqx7BPWfnY3Fxse7rJft2+v4DSMkILuv8Tyysx4mT43VffduqESN4bW0tugdP7dgD8WFHf3T0DADwGz7seLUj+NPWWPz00091Xy/Zt9P3H0BKRnBZ5//pF9/GzMxM3VfftmrECI6IGBo9HX3zK7U/TAC8nL6vfojhk2fqvlaKyf0HlMoILuv8u09OxfLyct3X3rZqzAi+cuVKdJ27XvvDBMDL6Ty74OuBXyD3H1AqI7is8+84PhhPnjyp+9rbVo0ZwWtra3F85FztDxMAL+fY8Hisra3Vfa0Uk/sPKJURXM75H5+6GZcK+lcbGjOCIyKmZ2ej+wv/VARAqbon/x0zc+Vcsrnk/gNKZASXc/5dA6Oxvr5e93W37Ro1gn/++efo7Bup/YECoJqjvcPx8OHDuq+T4nL/ASUygss4/2MT38Tl+fm6r7oXqlEjOCLi2sJC9F/4uvaHCoAX0zu5EAsLC3VfI8Xm/gNKYwSXcf79I2PFfC3wZo0bwRERE19ORd/0cu0PFgDb03vpu5i8cLHu66P43H9ASf787qHafw1Ntp3z7z5xJlZXV+u+3l64Ro7giIi+oZPRP79a+8MFwNb6vvohWiNjdV8buyb3H1CK9zta8dZfD8X7nwyQ2FvvHor3Owa3/P05OvJl3Lx5s+5rrVKNHcFPnjyJroHR6J27W/v/4AD8us9mb0f3YHkvs8o59x9Qko+HpuLv/+wnsY+Hprb8ffnH0Bfx3a3bdV9plWvsCN7s89PnoudLf2MmQG6OTd6I0TPn674mdm3uPwCq6GidiaVCPwO8WeNHcETExem56By9GH3zK7U/VABN1z+/Eh0jF+LS7OW6r4ddn/sPgO3qPP9N9AyOFfk1wM9nBP+375eXo2/kdHx6aiZaV9Zqf8gAmqZ1ZS26xqajb+R03Lp1q+5roTG5/wDYSs/UzfikbzSm5+Z3zZcnGcHPtbS0FCOnzkb30Hj0nL8afZfvxYmvH9b+8AHsNie+fhj9X/0Qx89fie6hM/H56XOxtLRU9zXQ2Nx/AAzfeBwnFtaj58K30TM2FV2fDcb07Fysr6/XfU3taEbwb/Tjjz/G9evX4+z5yegZGIquvuHobJ2K7pNT0TE0AUAFx8YuRmfrVHT1DUfPwFCcPT8RCwsLu+KlVbulku+/o8NAU9X950/Jjg5PROeJs9E5MBpHj7diZGw8ZmZmYnl5edd85vf5jOBt1m634/79+3Hv3r24c+cOABXcvXs37t+/H+12u+4/1rXN3H8Au9/Kyko8ePCg7isnWUawJEmSJKkxGcGSJEmSpMZkBEuSJEmSGpMRLEmSJElqTEawJEmSJKkxGcGSJEmSpMZkBEuSJEmSGpMRLEmSJElqTEawJEmSJKkxGcGSJEmSpMZkBEuSJEmSGpMRLEmSJElqTEawJEmSJKkxra6uxh9mZ2djdXUVAAAAdrXbt2/HfwAMiX9yB0v+aQAAAABJRU5ErkJggg==;" vertex="1" parent="1">
          <mxGeometry x="390" y="270" width="961" height="541" as="geometry" />
        </mxCell>
        <mxCell id="VqVprpiNp-JgvhQdnsUL-4" style="edgeStyle=orthogonalEdgeStyle;rounded=0;orthogonalLoop=1;jettySize=auto;html=1;entryX=0;entryY=0.305;entryDx=0;entryDy=0;entryPerimeter=0;" edge="1" parent="1" source="VqVprpiNp-JgvhQdnsUL-3" target="VqVprpiNp-JgvhQdnsUL-2">
          <mxGeometry relative="1" as="geometry" />
        </mxCell>
        <mxCell id="VqVprpiNp-JgvhQdnsUL-11" style="edgeStyle=orthogonalEdgeStyle;rounded=0;orthogonalLoop=1;jettySize=auto;html=1;entryX=0;entryY=0.75;entryDx=0;entryDy=0;" edge="1" parent="1" source="VqVprpiNp-JgvhQdnsUL-3" target="VqVprpiNp-JgvhQdnsUL-2">
          <mxGeometry relative="1" as="geometry" />
        </mxCell>
        <mxCell id="VqVprpiNp-JgvhQdnsUL-3" value="Decisor" style="shape=umlActor;verticalLabelPosition=bottom;verticalAlign=top;html=1;outlineConnect=0;" vertex="1" parent="1">
          <mxGeometry x="170" y="370" width="70" height="130" as="geometry" />
        </mxCell>
        <mxCell id="VqVprpiNp-JgvhQdnsUL-24" style="edgeStyle=orthogonalEdgeStyle;rounded=0;orthogonalLoop=1;jettySize=auto;html=1;entryX=0.25;entryY=1;entryDx=0;entryDy=0;" edge="1" parent="1" source="VqVprpiNp-JgvhQdnsUL-6" target="VqVprpiNp-JgvhQdnsUL-22">
          <mxGeometry relative="1" as="geometry" />
        </mxCell>
        <mxCell id="VqVprpiNp-JgvhQdnsUL-6" value="SAD (Algoritmos)" style="rounded=1;whiteSpace=wrap;html=1;" vertex="1" parent="1">
          <mxGeometry x="790" y="160" width="120" height="60" as="geometry" />
        </mxCell>
        <mxCell id="VqVprpiNp-JgvhQdnsUL-9" value="ERP" style="rounded=1;whiteSpace=wrap;html=1;" vertex="1" parent="1">
          <mxGeometry x="145" y="660" width="120" height="60" as="geometry" />
        </mxCell>
        <mxCell id="VqVprpiNp-JgvhQdnsUL-12" style="edgeStyle=orthogonalEdgeStyle;rounded=0;orthogonalLoop=1;jettySize=auto;html=1;" edge="1" parent="1">
          <mxGeometry relative="1" as="geometry">
            <mxPoint x="390" y="710" as="sourcePoint" />
            <mxPoint x="265" y="710" as="targetPoint" />
            <Array as="points">
              <mxPoint x="365" y="710" />
              <mxPoint x="365" y="710" />
            </Array>
          </mxGeometry>
        </mxCell>
        <mxCell id="VqVprpiNp-JgvhQdnsUL-13" value="DB" style="rounded=1;whiteSpace=wrap;html=1;" vertex="1" parent="1">
          <mxGeometry x="145" y="730" width="120" height="60" as="geometry" />
        </mxCell>
        <mxCell id="VqVprpiNp-JgvhQdnsUL-14" style="edgeStyle=orthogonalEdgeStyle;rounded=0;orthogonalLoop=1;jettySize=auto;html=1;" edge="1" parent="1">
          <mxGeometry relative="1" as="geometry">
            <mxPoint x="390" y="750" as="sourcePoint" />
            <mxPoint x="265" y="750" as="targetPoint" />
            <Array as="points">
              <mxPoint x="365" y="750" />
              <mxPoint x="365" y="750" />
            </Array>
          </mxGeometry>
        </mxCell>
        <mxCell id="VqVprpiNp-JgvhQdnsUL-16" value="" style="endArrow=classic;html=1;exitX=1;exitY=0.5;exitDx=0;exitDy=0;entryX=-0.003;entryY=0.775;entryDx=0;entryDy=0;entryPerimeter=0;" edge="1" parent="1" source="VqVprpiNp-JgvhQdnsUL-9" target="VqVprpiNp-JgvhQdnsUL-2">
          <mxGeometry width="50" height="50" relative="1" as="geometry">
            <mxPoint x="610" y="560" as="sourcePoint" />
            <mxPoint x="660" y="510" as="targetPoint" />
          </mxGeometry>
        </mxCell>
        <mxCell id="VqVprpiNp-JgvhQdnsUL-17" value="" style="endArrow=classic;html=1;exitX=1;exitY=0.5;exitDx=0;exitDy=0;entryX=0.001;entryY=0.923;entryDx=0;entryDy=0;entryPerimeter=0;" edge="1" parent="1" target="VqVprpiNp-JgvhQdnsUL-2">
          <mxGeometry width="50" height="50" relative="1" as="geometry">
            <mxPoint x="265" y="770" as="sourcePoint" />
            <mxPoint x="386.15599999999995" y="771.98" as="targetPoint" />
          </mxGeometry>
        </mxCell>
        <mxCell id="VqVprpiNp-JgvhQdnsUL-19" style="edgeStyle=orthogonalEdgeStyle;rounded=0;orthogonalLoop=1;jettySize=auto;html=1;entryX=1.002;entryY=0.824;entryDx=0;entryDy=0;entryPerimeter=0;" edge="1" parent="1" source="VqVprpiNp-JgvhQdnsUL-18" target="VqVprpiNp-JgvhQdnsUL-2">
          <mxGeometry relative="1" as="geometry" />
        </mxCell>
        <mxCell id="VqVprpiNp-JgvhQdnsUL-18" value="Decisor" style="shape=umlActor;verticalLabelPosition=bottom;verticalAlign=top;html=1;outlineConnect=0;" vertex="1" parent="1">
          <mxGeometry x="1440" y="650" width="70" height="130" as="geometry" />
        </mxCell>
        <mxCell id="VqVprpiNp-JgvhQdnsUL-20" value="MES" style="rounded=1;whiteSpace=wrap;html=1;" vertex="1" parent="1">
          <mxGeometry x="570" y="850" width="120" height="60" as="geometry" />
        </mxCell>
        <mxCell id="VqVprpiNp-JgvhQdnsUL-21" value="" style="endArrow=classic;html=1;exitX=0.25;exitY=1;exitDx=0;exitDy=0;entryX=0.5;entryY=0;entryDx=0;entryDy=0;" edge="1" parent="1" source="VqVprpiNp-JgvhQdnsUL-2" target="VqVprpiNp-JgvhQdnsUL-20">
          <mxGeometry width="50" height="50" relative="1" as="geometry">
            <mxPoint x="900" y="670" as="sourcePoint" />
            <mxPoint x="800" y="860" as="targetPoint" />
          </mxGeometry>
        </mxCell>
        <mxCell id="VqVprpiNp-JgvhQdnsUL-25" style="edgeStyle=orthogonalEdgeStyle;rounded=0;orthogonalLoop=1;jettySize=auto;html=1;entryX=0;entryY=0.5;entryDx=0;entryDy=0;" edge="1" parent="1" source="VqVprpiNp-JgvhQdnsUL-22" target="VqVprpiNp-JgvhQdnsUL-23">
          <mxGeometry relative="1" as="geometry" />
        </mxCell>
        <mxCell id="VqVprpiNp-JgvhQdnsUL-22" value="Clusters" style="rounded=1;whiteSpace=wrap;html=1;" vertex="1" parent="1">
          <mxGeometry x="660" y="70" width="120" height="60" as="geometry" />
        </mxCell>
        <mxCell id="VqVprpiNp-JgvhQdnsUL-27" style="edgeStyle=orthogonalEdgeStyle;rounded=0;orthogonalLoop=1;jettySize=auto;html=1;entryX=0.561;entryY=-0.003;entryDx=0;entryDy=0;entryPerimeter=0;" edge="1" parent="1" source="VqVprpiNp-JgvhQdnsUL-23" target="VqVprpiNp-JgvhQdnsUL-2">
          <mxGeometry relative="1" as="geometry" />
        </mxCell>
        <mxCell id="VqVprpiNp-JgvhQdnsUL-23" value="Rotas" style="rounded=1;whiteSpace=wrap;html=1;" vertex="1" parent="1">
          <mxGeometry x="870" y="40" width="120" height="60" as="geometry" />
        </mxCell>
      </root>
    </mxGraphModel>
  </diagram>
</mxfile>
